<svg xmlns="http://www.w3.org/2000/svg" viewBox="0 0 512 512">
  <defs>
    <linearGradient id="bg" x1="0" y1="0" x2="0" y2="1">
      <stop offset="0%" stop-color="#1a304c"/>
      <stop offset="100%" stop-color="#09111a"/>
    </linearGradient>
    <linearGradient id="glow" x1="0" y1="0" x2="1" y2="1">
      <stop offset="0%" stop-color="#ffde8a"/>
      <stop offset="50%" stop-color="#ff9a3d"/>
      <stop offset="100%" stop-color="#ff5b2b"/>
    </linearGradient>
  </defs>
  <rect width="512" height="512" rx="120" fill="url(#bg)"/>
  <ellipse cx="256" cy="398" rx="142" ry="56" fill="#0b171a" opacity="0.9"/>
  <ellipse cx="256" cy="382" rx="120" ry="44" fill="#ff9a3d" opacity="0.16"/>
  <rect x="184" y="318" width="152" height="28" rx="14" fill="#4a2d1e" transform="rotate(22 260 332)"/>
  <rect x="180" y="318" width="152" height="28" rx="14" fill="#3f2418" transform="rotate(-24 252 332)"/>
  <path d="M256 116c42 42 80 84 80 146 0 54-35 96-80 96s-80-42-80-96c0-62 36-104 80-146z" fill="#ffb45d"/>
  <path d="M256 92c28 30 54 60 54 106 0 36-24 66-54 66s-54-30-54-66c0-46 24-76 54-106z" fill="url(#glow)"/>
  <path d="M256 142c16 18 30 38 30 64 0 20-13 38-30 38s-30-18-30-38c0-26 14-46 30-64z" fill="#fff0b2" opacity="0.86"/>
</svg>
